<mxfile host="app.diagrams.net" modified="2021-12-21T03:48:45.992Z" agent="5.0 (Macintosh; Intel Mac OS X 10_15_7) AppleWebKit/605.1.15 (KHTML, like Gecko) Version/15.1 Safari/605.1.15" etag="8oT3CMGDsT8aPAgek9F_" version="16.0.0" type="github">
  <diagram id="C5RBs43oDa-KdzZeNtuy" name="Page-1">
    <mxGraphModel dx="1426" dy="717" grid="1" gridSize="10" guides="1" tooltips="1" connect="1" arrows="1" fold="1" page="1" pageScale="1" pageWidth="827" pageHeight="1169" math="0" shadow="0">
      <root>
        <mxCell id="WIyWlLk6GJQsqaUBKTNV-0" />
        <mxCell id="WIyWlLk6GJQsqaUBKTNV-1" parent="WIyWlLk6GJQsqaUBKTNV-0" />
        <mxCell id="YgrMS2XmJ_sWm5KTZGDN-12" value="" style="swimlane;startSize=0;" vertex="1" parent="WIyWlLk6GJQsqaUBKTNV-1">
          <mxGeometry x="150" y="410" width="500" height="460" as="geometry" />
        </mxCell>
        <mxCell id="YgrMS2XmJ_sWm5KTZGDN-5" value="playerCC.show" style="rounded=1;whiteSpace=wrap;html=1;" vertex="1" parent="YgrMS2XmJ_sWm5KTZGDN-12">
          <mxGeometry x="260" y="280" width="120" height="60" as="geometry" />
        </mxCell>
        <mxCell id="YgrMS2XmJ_sWm5KTZGDN-6" value="" style="edgeStyle=orthogonalEdgeStyle;rounded=0;orthogonalLoop=1;jettySize=auto;html=1;" edge="1" source="YgrMS2XmJ_sWm5KTZGDN-7" target="YgrMS2XmJ_sWm5KTZGDN-5" parent="YgrMS2XmJ_sWm5KTZGDN-12">
          <mxGeometry relative="1" as="geometry" />
        </mxCell>
        <mxCell id="YgrMS2XmJ_sWm5KTZGDN-7" value="playerManager接收PreparedPlay&lt;br&gt;playerManager.startPlay" style="rounded=1;whiteSpace=wrap;html=1;" vertex="1" parent="YgrMS2XmJ_sWm5KTZGDN-12">
          <mxGeometry x="220" y="160" width="200" height="70" as="geometry" />
        </mxCell>
        <mxCell id="YgrMS2XmJ_sWm5KTZGDN-9" value="cancelToast" style="rounded=1;whiteSpace=wrap;html=1;" vertex="1" parent="YgrMS2XmJ_sWm5KTZGDN-12">
          <mxGeometry x="80" y="350" width="120" height="60" as="geometry" />
        </mxCell>
        <mxCell id="YgrMS2XmJ_sWm5KTZGDN-10" style="edgeStyle=orthogonalEdgeStyle;rounded=0;orthogonalLoop=1;jettySize=auto;html=1;" edge="1" parent="YgrMS2XmJ_sWm5KTZGDN-12" source="YgrMS2XmJ_sWm5KTZGDN-5" target="YgrMS2XmJ_sWm5KTZGDN-9">
          <mxGeometry relative="1" as="geometry" />
        </mxCell>
        <mxCell id="YgrMS2XmJ_sWm5KTZGDN-26" value="" style="edgeStyle=orthogonalEdgeStyle;rounded=0;orthogonalLoop=1;jettySize=auto;html=1;" edge="1" parent="YgrMS2XmJ_sWm5KTZGDN-12" source="YgrMS2XmJ_sWm5KTZGDN-25" target="YgrMS2XmJ_sWm5KTZGDN-7">
          <mxGeometry relative="1" as="geometry" />
        </mxCell>
        <mxCell id="YgrMS2XmJ_sWm5KTZGDN-25" value="playerManager&lt;br&gt;onVideoPrepared" style="rounded=1;whiteSpace=wrap;html=1;" vertex="1" parent="YgrMS2XmJ_sWm5KTZGDN-12">
          <mxGeometry x="220" y="40" width="200" height="70" as="geometry" />
        </mxCell>
        <mxCell id="YgrMS2XmJ_sWm5KTZGDN-0" value="showToast" style="rounded=1;whiteSpace=wrap;html=1;" vertex="1" parent="WIyWlLk6GJQsqaUBKTNV-1">
          <mxGeometry x="210" y="340" width="120" height="60" as="geometry" />
        </mxCell>
        <mxCell id="YgrMS2XmJ_sWm5KTZGDN-4" style="edgeStyle=orthogonalEdgeStyle;rounded=0;orthogonalLoop=1;jettySize=auto;html=1;entryX=0.5;entryY=0;entryDx=0;entryDy=0;" edge="1" parent="WIyWlLk6GJQsqaUBKTNV-1" source="YgrMS2XmJ_sWm5KTZGDN-1" target="YgrMS2XmJ_sWm5KTZGDN-0">
          <mxGeometry relative="1" as="geometry" />
        </mxCell>
        <mxCell id="YgrMS2XmJ_sWm5KTZGDN-1" value="playerCC.show" style="rounded=1;whiteSpace=wrap;html=1;" vertex="1" parent="WIyWlLk6GJQsqaUBKTNV-1">
          <mxGeometry x="380" y="260" width="120" height="60" as="geometry" />
        </mxCell>
        <mxCell id="YgrMS2XmJ_sWm5KTZGDN-3" value="" style="edgeStyle=orthogonalEdgeStyle;rounded=0;orthogonalLoop=1;jettySize=auto;html=1;" edge="1" parent="WIyWlLk6GJQsqaUBKTNV-1" source="YgrMS2XmJ_sWm5KTZGDN-2" target="YgrMS2XmJ_sWm5KTZGDN-1">
          <mxGeometry relative="1" as="geometry" />
        </mxCell>
        <mxCell id="YgrMS2XmJ_sWm5KTZGDN-2" value="playerManager接收PreparedPlay&lt;br&gt;playerManager.startPlay" style="rounded=1;whiteSpace=wrap;html=1;" vertex="1" parent="WIyWlLk6GJQsqaUBKTNV-1">
          <mxGeometry x="340" y="140" width="200" height="70" as="geometry" />
        </mxCell>
        <mxCell id="YgrMS2XmJ_sWm5KTZGDN-18" value="" style="endArrow=classic;html=1;rounded=0;" edge="1" parent="WIyWlLk6GJQsqaUBKTNV-1">
          <mxGeometry width="50" height="50" relative="1" as="geometry">
            <mxPoint x="90" y="90" as="sourcePoint" />
            <mxPoint x="90" y="740" as="targetPoint" />
          </mxGeometry>
        </mxCell>
        <mxCell id="YgrMS2XmJ_sWm5KTZGDN-23" value="" style="edgeStyle=orthogonalEdgeStyle;rounded=0;orthogonalLoop=1;jettySize=auto;html=1;" edge="1" parent="WIyWlLk6GJQsqaUBKTNV-1" source="YgrMS2XmJ_sWm5KTZGDN-22" target="YgrMS2XmJ_sWm5KTZGDN-2">
          <mxGeometry relative="1" as="geometry" />
        </mxCell>
        <mxCell id="YgrMS2XmJ_sWm5KTZGDN-22" value="PreRollController start&lt;br&gt;发送PreparedPlayEvent" style="rounded=1;whiteSpace=wrap;html=1;" vertex="1" parent="WIyWlLk6GJQsqaUBKTNV-1">
          <mxGeometry x="340" y="20" width="200" height="70" as="geometry" />
        </mxCell>
      </root>
    </mxGraphModel>
  </diagram>
</mxfile>
